<svg width="24" height="24" viewBox="0 0 24 24" fill="none" xmlns="http://www.w3.org/2000/svg">
<g clip-path="url(#clip0_52_143)">
<path d="M12 24C18.6274 24 24 18.6274 24 12C24 5.37258 18.6274 0 12 0C5.37258 0 0 5.37258 0 12C0 18.6274 5.37258 24 12 24Z" fill="#F6F7FA"/>
<path d="M15.0172 12.4698H12.876V20.3143H9.63181V12.4698H8.08887V9.71289H9.63181V7.92887C9.63181 6.6531 10.2378 4.65538 12.9049 4.65538L15.3079 4.66543V7.34146H13.5644C13.2784 7.34146 12.8762 7.48436 12.8762 8.09294V9.71545H15.3007L15.0172 12.4698Z" fill="#3B5998"/>
</g>
<defs>
<clipPath id="clip0_52_143">
<rect width="24" height="24" fill="white"/>
</clipPath>
</defs>
</svg>
